<svg width="530" height="256" viewBox="0 0 530 256" fill="none" xmlns="http://www.w3.org/2000/svg">
<g clip-path="url(#clip0_7_48)">
<ellipse cx="256" cy="128" rx="256" ry="128" fill="#3E4780"/>
<path d="M111.436 77.7652H162.854C177.946 77.8919 188.882 82.2431 195.663 90.8117C202.443 99.3802 204.68 111.084 202.378 125.922C201.483 132.702 199.5 139.352 196.43 145.875C193.487 152.399 189.396 158.281 184.151 163.527C177.754 170.176 170.913 174.397 163.622 176.189C156.331 177.981 148.784 178.875 140.982 178.875H117.959L110.669 215.329H84L111.436 77.7652ZM133.884 99.6372L122.372 157.195C123.139 157.322 123.907 157.387 124.674 157.387C125.568 157.387 126.466 157.387 127.36 157.387C139.639 157.514 149.873 156.301 158.058 153.742C166.243 151.056 171.745 141.72 174.558 125.73C176.86 112.3 174.558 104.56 167.651 102.515C160.871 100.47 152.367 99.5105 142.134 99.6372C140.599 99.7639 139.129 99.8291 137.721 99.8291C136.443 99.8291 135.1 99.8291 133.692 99.8291L133.884 99.6372Z" fill="white"/>
<path d="M232.757 41.12H259.233L251.751 77.7653H275.541C288.588 78.0223 298.308 80.7083 304.704 85.8234C311.227 90.9384 313.146 100.662 310.46 114.986L297.605 178.876H270.745L283.024 117.864C284.302 111.467 283.918 106.928 281.873 104.242C279.827 101.556 275.415 100.213 268.634 100.213L247.338 100.021L231.605 178.876H205.129L232.757 41.12Z" fill="white"/>
<path d="M338.891 77.7652H390.31C405.402 77.8919 416.338 82.2431 423.118 90.8117C429.898 99.3802 432.135 111.084 429.833 125.922C428.939 132.702 426.955 139.352 423.885 145.875C420.942 152.399 416.852 158.281 411.606 163.527C405.21 170.176 398.368 174.397 391.077 176.189C383.787 177.981 376.239 178.875 368.438 178.875H345.415L338.124 215.329H311.455L338.891 77.7652ZM361.339 99.6372L349.827 157.195C350.595 157.322 351.362 157.387 352.13 157.387C353.024 157.387 353.922 157.387 354.816 157.387C367.095 157.514 377.329 156.301 385.513 153.742C393.698 151.056 399.201 141.72 402.013 125.73C404.316 112.3 402.013 104.56 395.106 102.515C388.326 100.47 379.823 99.5105 369.589 99.6372C368.054 99.7639 366.584 99.8291 365.176 99.8291C363.898 99.8291 362.555 99.8291 361.147 99.8291L361.339 99.6372Z" fill="white"/>
</g>
<defs>
<clipPath id="clip0_7_48">
<rect width="530" height="256" fill="white"/>
</clipPath>
</defs>
</svg>
