<svg width="342" height="256" viewBox="0 0 342 256" fill="none" xmlns="http://www.w3.org/2000/svg">
<g clip-path="url(#clip0_7_59)">
<g clip-path="url(#clip1_7_59)">
<path d="M241.481 193.453C240.397 192.682 240.578 190.189 244.141 182.426C245.541 179.378 248.733 174.246 254.282 169.342C254.925 171.359 255.317 173.293 255.306 175.093C255.234 187.105 246.664 191.591 241.481 193.453ZM195.862 203.852C194.41 204.612 193.078 205.09 192.459 204.721C192.005 204.45 193.058 203.45 193.058 203.45C193.058 203.45 200.466 195.482 203.383 191.853C205.08 189.743 207.048 187.239 209.192 184.437C209.209 184.717 209.219 184.995 209.219 185.269C209.197 194.816 199.975 201.261 195.862 203.852ZM136.646 175.598C133.219 183.952 126.047 205.324 121.682 204.178C117.935 203.195 115.653 186.949 120.934 170.96C123.592 162.911 129.27 153.294 132.606 149.561C137.976 143.555 143.888 141.59 145.325 144.025C147.156 147.128 138.794 170.361 136.646 175.598ZM64.9708 224.324C55.1325 235.057 41.387 239.113 35.4929 235.697C29.1283 232.006 31.6491 216.205 43.7226 204.815C51.0816 197.874 60.5814 191.481 66.8836 187.543C68.3176 186.68 70.4249 185.412 72.9856 183.878C73.4102 183.636 73.6496 183.502 73.6496 183.502L73.6402 183.486C74.1346 183.19 74.6409 182.887 75.164 182.574C79.557 198.786 75.2974 213.059 64.9708 224.324ZM293.918 147.138C281.982 147.201 271.643 150.067 262.977 154.338C259.807 148.012 256.599 142.447 256.06 138.309C255.431 133.479 254.703 130.597 255.462 124.842C256.222 119.087 259.551 110.939 259.503 110.328C259.454 109.718 258.756 106.786 251.871 106.736C244.986 106.687 239.097 108.061 238.404 109.879C237.711 111.697 236.385 115.788 235.561 120.054C234.355 126.297 221.815 148.561 214.695 160.209C212.366 155.663 210.386 151.655 209.973 148.485C209.345 143.654 208.615 140.773 209.374 135.017C210.134 129.263 213.464 121.113 213.415 120.503C213.367 119.892 212.669 116.961 205.784 116.912C198.899 116.862 193.009 118.236 192.317 120.054C191.623 121.872 190.883 126.12 189.473 130.229C188.063 134.339 171.393 171.479 167.028 181.105C164.803 186.01 162.867 189.951 161.501 192.642C161.497 192.635 161.492 192.627 161.492 192.627C161.492 192.627 161.408 192.806 161.263 193.109C160.093 195.399 159.396 196.667 159.396 196.667C159.396 196.667 159.404 196.684 159.417 196.714C158.489 198.396 157.495 199.959 157.002 199.959C156.658 199.959 155.969 195.481 157.153 189.335C159.633 176.451 165.591 156.359 165.532 155.667C165.501 155.312 166.639 151.811 161.641 149.981C156.782 148.203 155.052 151.169 154.609 151.178C154.179 151.187 153.86 152.226 153.86 152.226C153.86 152.226 159.273 129.631 143.535 129.631C133.696 129.631 120.063 140.394 113.346 150.15C109.108 152.462 100.038 157.413 90.4155 162.7C86.7195 164.73 82.9481 166.806 79.3719 168.776C79.1287 168.507 78.8862 168.237 78.6361 167.97C59.5531 147.61 24.2759 133.21 25.773 105.839C26.3171 95.8878 29.7759 69.6868 93.5578 37.9044C145.805 11.8692 187.632 19.0336 194.861 34.9117C205.187 57.5963 172.506 99.7565 118.247 105.839C97.5737 108.156 86.6884 100.144 83.9806 97.1597C81.1307 94.0187 80.7055 93.8771 79.6412 94.4663C77.9079 95.4271 79.0065 98.2003 79.6412 99.8532C81.2616 104.07 87.9091 111.546 99.2433 115.266C109.214 118.538 133.486 120.335 162.838 108.981C195.714 96.2644 221.385 60.8895 213.845 31.3205C206.177 1.24703 156.313 -8.63946 109.12 8.12711C81.0328 18.1053 50.6274 33.7664 28.766 54.2146C2.77205 78.5284 -1.3731 99.6898 0.33489 108.532C6.40382 139.95 49.7075 160.409 67.0482 175.572C66.1922 176.044 65.3897 176.487 64.6596 176.89C55.9657 181.191 22.9567 198.465 14.6999 216.718C5.33416 237.422 16.191 252.276 23.3787 254.276C45.6483 260.473 68.5009 249.327 80.7822 231.009C93.0609 212.694 91.5615 188.848 85.9259 177.962C85.856 177.827 85.7787 177.695 85.707 177.561C87.9515 176.232 90.2409 174.881 92.5098 173.549C96.9346 170.951 101.278 168.527 105.047 166.476C102.939 172.255 101.394 179.181 100.59 189.185C99.6461 200.938 104.462 216.129 110.765 222.105C113.54 224.736 116.879 224.798 118.995 224.798C126.329 224.798 129.676 218.697 133.36 211.481C137.88 202.63 141.889 192.327 141.889 192.327C141.889 192.327 136.857 220.159 150.569 220.159C155.565 220.159 160.59 213.681 162.829 210.378C162.835 210.414 162.838 210.433 162.838 210.433C162.838 210.433 162.968 210.218 163.223 209.787C163.741 208.994 164.035 208.489 164.035 208.489C164.035 208.489 164.045 208.436 164.061 208.345C166.07 204.858 170.524 196.908 177.204 183.798C185.834 166.86 194.112 145.641 194.112 145.641C194.112 145.641 194.882 150.829 197.404 159.408C198.888 164.455 202.04 170.035 204.527 175.386C202.525 178.163 201.294 179.759 201.294 179.759C201.294 179.759 201.306 179.788 201.328 179.842C199.728 181.965 197.934 184.257 196.058 186.492C189.246 194.604 181.133 203.869 180.046 206.543C178.767 209.693 179.069 212.011 181.542 213.875C183.349 215.237 186.566 215.448 189.922 215.221C196.043 214.81 200.35 213.292 202.475 212.367C205.788 211.196 209.645 209.353 213.266 206.692C219.947 201.78 223.978 194.753 223.59 185.444C223.376 180.314 221.74 175.23 219.671 170.43C220.277 169.558 220.885 168.678 221.495 167.787C232.029 152.388 240.199 135.466 240.199 135.466C240.199 135.466 240.969 140.654 243.492 149.233C244.768 153.575 247.286 158.312 249.551 162.958C239.646 171.006 233.504 180.357 231.371 186.492C227.427 197.837 230.516 202.978 236.309 204.148C238.934 204.679 242.639 203.476 245.428 202.296C248.897 201.146 253.065 199.23 256.959 196.368C263.641 191.456 270.065 184.577 269.678 175.269C269.501 171.031 268.352 166.825 266.792 162.785C275.188 159.287 286.058 157.343 299.904 158.96C329.607 162.428 335.434 180.974 334.32 188.736C333.206 196.499 326.975 200.766 324.892 202.054C322.81 203.342 322.174 203.789 322.349 204.748C322.602 206.141 323.566 206.087 325.341 205.788C327.787 205.375 340.939 199.474 341.502 185.146C342.217 166.955 324.789 146.974 293.918 147.138Z" fill="#CD4A9C"/>
</g>
</g>
<defs>
<clipPath id="clip0_7_59">
<rect width="341.522" height="256" fill="white"/>
</clipPath>
<clipPath id="clip1_7_59">
<rect width="341.522" height="256" fill="white"/>
</clipPath>
</defs>
</svg>
