<svg width="256" height="256" viewBox="0 0 256 256" fill="none" xmlns="http://www.w3.org/2000/svg">
<g clip-path="url(#clip0_6_25)">
<g clip-path="url(#clip1_6_25)">
<rect width="256" height="256" rx="128" fill="white"/>
<path d="M128 0C57.2903 0 0 57.2903 0 128C0 198.71 57.2903 256 128 256C198.71 256 256 198.71 256 128C256 57.2903 198.71 0 128 0ZM197.027 74.0852C191.107 74.2968 187.014 70.7561 186.823 65.3781C186.684 60.64 190.271 58.4413 190.194 55.649C190.075 52.2684 184.95 52.129 183.551 52.2065C163.019 52.8723 158.472 81.6258 153.156 110.968C164.217 112.594 172.072 110.596 176.454 107.757C182.648 103.757 174.73 99.6439 175.721 95.0813C177.786 85.7084 192.521 85.2748 192.237 97.8168C192.052 107.035 178.859 119.396 152.186 116.243C146.632 146.963 142.715 175.597 122.147 199.711C107.179 217.497 92.0052 220.263 85.2026 220.49C72.48 220.929 64.0413 214.137 63.7419 205.089C63.4529 196.315 71.2 191.535 76.289 191.365C87.5871 190.978 91.8348 204.614 83.969 208.914C77.729 213.925 84.0258 215.422 85.0271 215.391C90.4052 215.205 93.9768 212.547 96.4748 210.746C108.862 200.423 113.631 182.431 119.881 149.662C124.108 124.031 128.655 109.404 129.29 107.339C120.552 100.759 115.314 92.6039 103.561 89.4194C95.5045 87.2361 90.5961 89.0942 87.1432 93.4606C83.0555 98.6219 84.4129 105.332 88.3665 109.306L94.8852 116.532C102.89 125.786 107.272 132.981 105.621 142.658C103.009 158.106 84.6039 169.961 62.8439 163.272C44.2632 157.538 40.8052 144.403 43.0348 137.146C46.911 124.681 64.8981 131.097 60.9032 144.165C59.4632 148.604 58.3639 148.645 57.6619 150.911C55.3084 158.534 79.2619 165.569 83.9845 150.194C86.2916 142.699 81.249 138.988 72.5006 129.626C57.8065 113.239 64.2426 95.8245 74.0232 88.5058C101.28 68.1961 125.905 97.5484 131.097 101.827C150.281 45.569 182.983 47.3961 183.964 47.36C196.95 46.9419 206.772 52.8258 207.102 62.1471C207.231 66.1161 204.95 73.8064 197.027 74.0852Z" fill="black"/>
</g>
</g>
<defs>
<clipPath id="clip0_6_25">
<rect width="256" height="256" fill="white"/>
</clipPath>
<clipPath id="clip1_6_25">
<rect width="256" height="256" rx="128" fill="white"/>
</clipPath>
</defs>
</svg>
