<svg width="256" height="256" viewBox="0 0 256 256" fill="none" xmlns="http://www.w3.org/2000/svg">
<rect width="256" height="256" rx="64" fill="url(#paint0_linear_13_172)"/>
<g clip-path="url(#clip0_13_172)">
<path d="M88 88C88 98.6087 92.2143 108.783 99.7157 116.284C107.217 123.786 117.391 128 128 128C138.609 128 148.783 123.786 156.284 116.284C163.786 108.783 168 98.6087 168 88C168 77.3913 163.786 67.2172 156.284 59.7157C148.783 52.2143 138.609 48 128 48C117.391 48 107.217 52.2143 99.7157 59.7157C92.2143 67.2172 88 77.3913 88 88ZM117.531 150.563L123.344 160.25L112.938 198.969L101.688 153.063C101.063 150.531 98.625 148.875 96.0938 149.531C74.2188 155 58 174.812 58 198.406C58 203.719 62.3125 208 67.5938 208H108.75C108.75 208 108.75 208 108.781 208H110.5H145.5H147.219C147.219 208 147.219 208 147.25 208H188.406C193.719 208 198 203.687 198 198.406C198 174.812 181.781 155 159.906 149.531C157.375 148.906 154.938 150.563 154.313 153.063L143.063 198.969L132.656 160.25L138.469 150.563C140.469 147.219 138.063 143 134.188 143H128H121.844C117.969 143 115.563 147.25 117.563 150.563H117.531Z" fill="black"/>
</g>
<defs>
<linearGradient id="paint0_linear_13_172" x1="128" y1="0" x2="128" y2="256" gradientUnits="userSpaceOnUse">
<stop offset="0.33" stop-color="white"/>
<stop offset="1" stop-color="#F1F2F4"/>
</linearGradient>
<clipPath id="clip0_13_172">
<rect width="140" height="160" fill="white" transform="translate(58 48)"/>
</clipPath>
</defs>
</svg>
