<svg width="124" height="64" viewBox="0 0 124 64" fill="none" xmlns="http://www.w3.org/2000/svg">
<g clip-path="url(#clip0)">
<path d="M3.07122 49.8423V60.3102H0.356934V49.8423H3.07122Z" fill="white"/>
<path d="M13.0714 52.8899C13.6429 53.5525 14 54.4138 14 55.4738V60.244H11.2857V55.7388C11.2857 55.2088 11.1429 54.745 10.7857 54.4138C10.5 54.0825 10.0714 53.95 9.5 53.95C8.92857 53.95 8.5 54.0825 8.21429 54.4138C7.85714 54.745 7.71429 55.2088 7.71429 55.8051V60.1777H5V52.0287H7.71429V53.5525C8 53.0887 8.35714 52.6912 8.85714 52.3599C9.35714 52.0949 9.92857 51.9624 10.6429 51.9624C11.6429 51.9624 12.4286 52.2937 13.0714 52.8899Z" fill="white"/>
<path d="M21.7141 52.6912C22.3569 53.2212 22.7855 53.8837 22.9998 54.745H20.4284C20.3569 54.4137 20.2141 54.1487 19.9284 53.95C19.6426 53.7512 19.3569 53.6849 18.9284 53.6849C18.6426 53.6849 18.3569 53.7512 18.2141 53.8837C18.0712 54.0162 17.9998 54.215 17.9998 54.4137C17.9998 54.6787 18.1426 54.8775 18.4284 55.01C18.7141 55.1425 19.2141 55.275 19.7855 55.4075C20.4998 55.54 20.9998 55.7388 21.4284 55.8713C21.8569 56.0038 22.2141 56.2688 22.5712 56.6001C22.8569 56.9313 23.0712 57.3951 23.0712 57.9914C23.0712 58.4551 22.9284 58.8526 22.6426 59.2502C22.3569 59.6477 21.9998 59.9127 21.4284 60.1114C20.9284 60.3102 20.2855 60.4427 19.5712 60.4427C18.3569 60.4427 17.4284 60.1777 16.7141 59.7139C15.9998 59.2502 15.5712 58.5214 15.3569 57.5938H17.9998C18.0712 57.9251 18.2141 58.1901 18.4998 58.3889C18.7855 58.5876 19.1426 58.6539 19.5712 58.6539C19.8569 58.6539 20.1426 58.5876 20.2855 58.4551C20.4284 58.3226 20.4998 58.1239 20.4998 57.9251C20.4998 57.6601 20.3569 57.4613 20.0712 57.3288C19.7855 57.1963 19.2855 57.0638 18.6426 56.9313C17.9998 56.7988 17.4284 56.6663 16.9998 56.5338C16.5712 56.4013 16.2141 56.1363 15.9284 55.805C15.6426 55.4738 15.4998 55.01 15.4998 54.48C15.4998 53.7512 15.7855 53.1549 16.4284 52.6912C16.9998 52.2274 17.8569 52.0286 18.9998 52.0286C20.1426 51.9624 20.9998 52.2274 21.7141 52.6912Z" fill="white"/>
<path d="M29.6425 58.1239V60.3103H28.4282C27.3568 60.3103 26.5711 60.0452 25.9997 59.5815C25.4282 59.1177 25.1425 58.3227 25.1425 57.1964V54.1488H23.9282V52.0287H25.1425V49.9749H27.8568V52.0287H29.6425V54.1488H27.8568V57.1964C27.8568 57.5277 27.9282 57.7264 28.0711 57.8589C28.2139 57.9914 28.4282 58.0577 28.7854 58.0577H29.6425V58.1239Z" fill="white"/>
<path d="M31.3568 48.7823C31.6425 48.5173 32.0711 48.3848 32.5711 48.3848C33.0711 48.3848 33.4282 48.5173 33.7854 48.7823C34.0711 49.0473 34.2139 49.3786 34.2139 49.7098C34.2139 50.1073 34.0711 50.3723 33.7854 50.6374C33.4997 50.9024 33.0711 51.0349 32.5711 51.0349C32.0711 51.0349 31.7139 50.9024 31.3568 50.6374C31.0711 50.3723 30.9282 50.0411 30.9282 49.7098C30.9282 49.3123 31.0711 48.981 31.3568 48.7823ZM33.9282 52.0287V60.3102H31.2139V52.0287H33.9282Z" fill="white"/>
<path d="M40.8569 58.1239V60.3103H39.6426C38.5711 60.3103 37.7854 60.0452 37.214 59.5815C36.6426 59.1177 36.3569 58.3227 36.3569 57.1964V54.1488H35.1426V52.0287H36.3569V49.9749H39.0712V52.0287H40.8569V54.1488H39.0712V57.1964C39.0712 57.5277 39.1426 57.7264 39.2854 57.8589C39.4283 57.9914 39.6426 58.0577 39.9997 58.0577H40.8569V58.1239Z" fill="white"/>
<path d="M51.2139 52.0286V60.3101H48.4996V58.7863C48.2139 59.2501 47.8567 59.6476 47.3567 59.9126C46.8567 60.1776 46.2853 60.3101 45.571 60.3101C44.571 60.3101 43.7139 59.9789 43.1424 59.3826C42.571 58.7201 42.2139 57.8588 42.2139 56.7988V52.0286H44.9996V56.5337C44.9996 57.13 45.1424 57.5275 45.4996 57.8588C45.7853 58.1901 46.2139 58.3226 46.7853 58.3226C47.3567 58.3226 47.7853 58.1901 48.071 57.8588C48.3567 57.5275 48.571 57.0638 48.571 56.4675V52.0948H51.2139V52.0286Z" fill="white"/>
<path d="M58.1425 58.1239V60.3103H56.9282C55.8568 60.3103 55.0711 60.0452 54.4997 59.5815C53.9282 59.1177 53.6425 58.3227 53.6425 57.1964V54.1488H52.4282V52.0287H53.6425V49.9749H56.3568V52.0287H58.1425V54.1488H56.3568V57.1964C56.3568 57.5277 56.4282 57.7264 56.5711 57.8589C56.7139 57.9914 56.9282 58.0577 57.2854 58.0577H58.1425V58.1239Z" fill="white"/>
<path d="M67.9998 52.36C68.4998 52.625 68.8569 53.0226 69.0712 53.5526V49.3787H71.7855V60.3103H69.0712V58.7865C68.8569 59.2503 68.4998 59.6478 67.9998 59.9791C67.4998 60.3103 66.9284 60.3766 66.2141 60.3766C65.4998 60.3766 64.8569 60.1778 64.2141 59.8466C63.6426 59.5153 63.1426 58.9853 62.8569 58.389C62.4998 57.7265 62.3569 56.9977 62.3569 56.1364C62.3569 55.2751 62.4998 54.5464 62.8569 53.8838C63.2141 53.2213 63.6426 52.7575 64.2141 52.4263C64.7855 52.095 65.4284 51.8963 66.2141 51.8963C66.9284 51.9625 67.5712 52.095 67.9998 52.36ZM65.7141 54.6789C65.3569 55.0101 65.2141 55.5402 65.2141 56.1364C65.2141 56.799 65.3569 57.2627 65.7141 57.594C66.0712 57.9252 66.5712 58.124 67.1426 58.124C67.7141 58.124 68.2141 57.9252 68.5712 57.594C68.9284 57.1965 69.1427 56.7327 69.1427 56.1364C69.1427 55.5402 68.9284 55.0101 68.5712 54.6789C68.2141 54.3476 67.7141 54.1488 67.1426 54.1488C66.5712 54.1488 66.0712 54.3476 65.7141 54.6789Z" fill="white"/>
<path d="M82.5713 52.0286V60.3101H79.857V58.7863C79.5713 59.2501 79.2141 59.6476 78.7141 59.9126C78.2141 60.1776 77.6427 60.3101 76.9284 60.3101C75.9284 60.3101 75.0713 59.9789 74.4999 59.3826C73.9284 58.7201 73.5713 57.8588 73.5713 56.7988V52.0286H76.2856V56.5337C76.2856 57.13 76.4284 57.5275 76.7856 57.8588C77.0713 58.1901 77.4999 58.3226 78.0713 58.3226C78.6427 58.3226 79.0713 58.1901 79.357 57.8588C79.6427 57.5275 79.857 57.0638 79.857 56.4675V52.0948H82.5713V52.0286Z" fill="white"/>
<path d="M95.1427 52.4262C95.7142 52.7574 96.2142 53.2875 96.4999 53.8837C96.857 54.5463 96.9999 55.275 96.9999 56.1363C96.9999 56.9976 96.857 57.7264 96.4999 58.3889C96.1427 59.0514 95.7142 59.5152 95.1427 59.8465C94.5713 60.1777 93.9284 60.3765 93.1427 60.3765C92.4284 60.3765 91.857 60.244 91.357 59.979C90.857 59.714 90.4999 59.3164 90.2856 58.7864V64.2191H87.5713V52.0287H90.2856V53.5525C90.4999 53.0887 90.857 52.6912 91.357 52.3599C91.857 52.0949 92.4284 51.9624 93.1427 51.9624C93.9284 51.9624 94.5713 52.0949 95.1427 52.4262ZM90.9284 54.6788C90.5713 55.01 90.357 55.54 90.357 56.1363C90.357 56.7326 90.5713 57.2626 90.9284 57.5939C91.2856 57.9914 91.7856 58.1239 92.357 58.1239C92.9284 58.1239 93.4284 57.9251 93.7856 57.5939C94.1427 57.2626 94.2856 56.7326 94.2856 56.1363C94.2856 55.4738 94.0713 55.01 93.7856 54.6788C93.4284 54.3475 92.9284 54.1487 92.357 54.1487C91.7142 54.1487 91.2856 54.3475 90.9284 54.6788Z" fill="white"/>
<path d="M105 52.4263C105.714 52.7575 106.214 53.2875 106.643 53.8838C107.071 54.5463 107.214 55.2751 107.214 56.1364C107.214 56.9977 107 57.7265 106.643 58.389C106.286 59.0515 105.714 59.5153 105 59.8465C104.286 60.1778 103.5 60.3766 102.643 60.3766C101.786 60.3766 101 60.1778 100.286 59.8465C99.5713 59.5153 98.9999 58.9853 98.6427 58.389C98.2856 57.7927 98.0713 56.9977 98.0713 56.1364C98.0713 55.2751 98.2856 54.5463 98.6427 53.8838C99.0713 53.2213 99.5713 52.7575 100.286 52.4263C101 52.095 101.786 51.8962 102.643 51.8962C103.5 51.9625 104.286 52.095 105 52.4263ZM101.286 54.6788C100.928 55.0101 100.786 55.5401 100.786 56.2027C100.786 56.8652 100.928 57.3952 101.286 57.7265C101.643 58.0577 102.071 58.2565 102.571 58.2565C103.071 58.2565 103.5 58.0577 103.857 57.7265C104.214 57.3952 104.357 56.8652 104.357 56.2027C104.357 55.5401 104.214 55.0101 103.857 54.6788C103.5 54.3476 103.071 54.1488 102.571 54.1488C102.143 54.1488 101.643 54.2813 101.286 54.6788Z" fill="white"/>
<path d="M112.714 52.4262C113.285 52.1612 113.857 51.9624 114.428 51.9624V54.6788H113.643C112.928 54.6788 112.357 54.8113 111.928 55.0763C111.5 55.3413 111.357 55.8713 111.357 56.5338V60.3102H108.643V52.0287H111.357V53.5525C111.714 53.0887 112.143 52.6912 112.714 52.4262Z" fill="white"/>
<path d="M122.5 52.8237C123.285 53.42 123.785 54.215 124 55.275H121.143C121.071 54.9438 120.857 54.6125 120.643 54.4138C120.357 54.215 120.071 54.1487 119.643 54.1487C119.143 54.1487 118.785 54.3475 118.428 54.6788C118.143 55.01 118 55.54 118 56.2026C118 56.8651 118.143 57.3951 118.428 57.7264C118.714 58.0576 119.143 58.2564 119.643 58.2564C120.071 58.2564 120.357 58.1901 120.643 57.9914C120.928 57.7926 121.071 57.5276 121.143 57.1301H124C123.785 58.1239 123.285 58.9852 122.5 59.5814C121.714 60.1777 120.785 60.4427 119.643 60.4427C118.785 60.4427 118 60.244 117.285 59.9127C116.643 59.5814 116.071 59.0514 115.714 58.4552C115.357 57.7926 115.143 57.0639 115.143 56.2026C115.143 55.3413 115.357 54.6125 115.714 53.95C116.071 53.2875 116.643 52.8237 117.285 52.4924C117.928 52.1612 118.714 51.9624 119.643 51.9624C120.785 51.9624 121.714 52.2274 122.5 52.8237Z" fill="white"/>
<path d="M7.21429 4.63773C7.21429 6.42655 5.78571 7.81786 3.57143 7.81786C1.42857 7.81786 0 6.42655 0 4.63773C0 2.78266 1.5 1.39136 3.64286 1.39136C5.78571 1.39136 7.14286 2.84891 7.21429 4.63773ZM0.357143 34.9152V11.263H6.85714V34.9152H0.357143Z" fill="white"/>
<path d="M25.8571 4.70393C22.2856 5.10145 21.0714 7.42029 21.0714 10.2692V11.2629H36.2856V34.9151H29.7856V15.7681H21.1428V34.9151H14.7142V15.7681H11.2856V11.3292H14.7142V10.2029C14.7142 4.17391 18.9999 0.397516 25.8571 0V4.70393Z" fill="white"/>
<path d="M41.143 19.147C41.143 16.0331 41.0716 13.5155 40.9287 11.2629H46.5716L46.8573 14.9068H46.9287C48.7859 12.2567 51.7859 10.7329 55.643 10.7329C61.5001 10.7329 66.3573 15.3706 66.3573 22.7909C66.3573 31.3375 60.5716 35.4451 54.7144 35.4451C51.5001 35.4451 48.8573 34.1863 47.5716 32.265H47.5001V43.4617H41.0716L41.143 19.147ZM47.5716 24.9772C47.5716 25.5735 47.643 26.1035 47.7859 26.6335C48.4287 29.0849 50.7144 30.8074 53.4287 30.8074C57.5001 30.8074 59.9287 27.6273 59.9287 22.9896C59.9287 18.8157 57.7144 15.4368 53.5716 15.4368C50.9287 15.4368 48.4287 17.2257 47.8573 19.8758C47.7144 20.3395 47.5716 20.8696 47.5716 21.3996V24.9772Z" fill="white"/>
<path d="M36.643 4.63773C36.643 6.42655 35.2144 7.81786 33.0001 7.81786C30.8573 7.81786 29.4287 6.42655 29.4287 4.63773C29.4287 2.78266 30.9287 1.39136 33.0001 1.39136C35.2859 1.39136 36.643 2.84891 36.643 4.63773Z" fill="white"/>
<path d="M120.643 20.0083H79.2141C77.3569 20.0083 75.8569 21.3996 75.8569 23.1222C75.8569 24.8447 77.3569 26.236 79.2141 26.236H120.643C122.5 26.236 124 24.8447 124 23.1222C124 21.3996 122.5 20.0083 120.643 20.0083Z" fill="#C1022B"/>
</g>
<defs>
<clipPath id="clip0">
<rect width="124" height="64" fill="white"/>
</clipPath>
</defs>
</svg>
