<svg width="320" height="320" viewBox="0 0 320 320" fill="none" xmlns="http://www.w3.org/2000/svg">
<g filter="url(#filter0_d_8_2)">
<rect x="32" y="16" width="256" height="256" rx="64" fill="url(#paint0_linear_8_2)"/>
<g clip-path="url(#clip0_8_2)">
<g filter="url(#filter1_i_8_2)">
<path d="M165.562 66.4688C164.156 64.9062 162.125 64 160 64C157.875 64 155.844 64.9062 154.437 66.4688L109.437 116.469C107.469 118.656 106.969 121.844 108.156 124.531C109.344 127.219 112.031 129 115 129H118.687L99.3125 151.625C97.4062 153.844 96.9687 156.969 98.1875 159.625C99.4062 162.281 102.062 164 105 164H112.5L91.5 192C89.7812 194.281 89.5312 197.312 90.7812 199.844C92.0312 202.375 94.6562 204 97.5 204H140H152.5V216.5C152.5 220.656 155.844 224 160 224C164.156 224 167.5 220.656 167.5 216.5V204H180H222.5C225.344 204 227.937 202.406 229.219 199.844C230.5 197.281 230.219 194.25 228.5 192L207.5 164H215C217.937 164 220.594 162.281 221.812 159.625C223.031 156.969 222.594 153.844 220.688 151.625L201.312 129H205C207.969 129 210.656 127.25 211.844 124.562C213.031 121.875 212.562 118.688 210.562 116.5L165.562 66.5V66.4688ZM167.5 189V131.5C167.5 127.344 164.156 124 160 124C155.844 124 152.5 127.344 152.5 131.5V189H140H112.5L133.5 161C135.219 158.719 135.469 155.688 134.219 153.156C132.969 150.625 130.344 149 127.5 149H121.312L140.687 126.375C142.594 124.156 143.031 121.031 141.812 118.375C140.594 115.719 137.937 114 135 114H131.844L160 82.7188L188.156 114H185C182.062 114 179.406 115.719 178.187 118.375C176.969 121.031 177.406 124.156 179.312 126.375L198.687 149H192.5C189.656 149 187.062 150.594 185.781 153.156C184.5 155.719 184.781 158.75 186.5 161L207.5 189H180H167.5Z" fill="#80653B"/>
</g>
</g>
</g>
<defs>
<filter id="filter0_d_8_2" x="0" y="0" width="320" height="320" filterUnits="userSpaceOnUse" color-interpolation-filters="sRGB">
<feFlood flood-opacity="0" result="BackgroundImageFix"/>
<feColorMatrix in="SourceAlpha" type="matrix" values="0 0 0 0 0 0 0 0 0 0 0 0 0 0 0 0 0 0 127 0" result="hardAlpha"/>
<feOffset dy="16"/>
<feGaussianBlur stdDeviation="16"/>
<feComposite in2="hardAlpha" operator="out"/>
<feColorMatrix type="matrix" values="0 0 0 0 0 0 0 0 0 0 0 0 0 0 0 0 0 0 0.25 0"/>
<feBlend mode="normal" in2="BackgroundImageFix" result="effect1_dropShadow_8_2"/>
<feBlend mode="normal" in="SourceGraphic" in2="effect1_dropShadow_8_2" result="shape"/>
</filter>
<filter id="filter1_i_8_2" x="89.9977" y="64" width="140.018" height="162" filterUnits="userSpaceOnUse" color-interpolation-filters="sRGB">
<feFlood flood-opacity="0" result="BackgroundImageFix"/>
<feBlend mode="normal" in="SourceGraphic" in2="BackgroundImageFix" result="shape"/>
<feColorMatrix in="SourceAlpha" type="matrix" values="0 0 0 0 0 0 0 0 0 0 0 0 0 0 0 0 0 0 127 0" result="hardAlpha"/>
<feOffset dy="2"/>
<feGaussianBlur stdDeviation="2"/>
<feComposite in2="hardAlpha" operator="arithmetic" k2="-1" k3="1"/>
<feColorMatrix type="matrix" values="0 0 0 0 0.369626 0 0 0 0 0.291658 0 0 0 0 0.170374 0 0 0 1 0"/>
<feBlend mode="normal" in2="shape" result="effect1_innerShadow_8_2"/>
</filter>
<linearGradient id="paint0_linear_8_2" x1="160" y1="16" x2="160" y2="272" gradientUnits="userSpaceOnUse">
<stop offset="0.33" stop-color="white"/>
<stop offset="1" stop-color="#F1F2F4"/>
</linearGradient>
<clipPath id="clip0_8_2">
<rect width="140" height="160" fill="white" transform="translate(90 64)"/>
</clipPath>
</defs>
</svg>
